<svg width="56" height="54" viewBox="0 0 56 54" fill="none" xmlns="http://www.w3.org/2000/svg">
<path d="M41.5586 12.4844C49.596 15.5764 55.3008 23.3695 55.3008 32.4961C55.3008 36.0259 54.447 39.3567 52.9355 42.293C52.9632 42.3624 52.9886 42.4346 53.0098 42.5088L55.502 51.2314C55.9609 52.8382 54.5077 54.3395 52.8867 53.9336L44.0859 51.7305C43.9312 51.6917 43.7864 51.6372 43.6514 51.5713C40.7177 53.0794 37.3908 53.9316 33.8652 53.9316C25.0904 53.9316 17.548 48.6582 14.2314 41.1084C16.6197 42.0275 19.2137 42.5332 21.9258 42.5332C33.7641 42.533 43.3604 32.936 43.3604 21.0977C43.3603 18.0337 42.7168 15.1205 41.5586 12.4844Z" fill="#F08080"/>
<path d="M16 22C16 23.6569 14.433 25 12.5 25C10.567 25 9 23.6569 9 22C9 20.3431 10.567 19 12.5 19C14.433 19 16 20.3431 16 22Z" fill="#F08080"/>
<path d="M25 22C25 23.6569 23.6569 25 22 25C20.3431 25 19 23.6569 19 22C19 20.3431 20.3431 19 22 19C23.6569 19 25 20.3431 25 22Z" fill="#F08080"/>
<path d="M34 22C34 23.6569 32.6569 25 31 25C29.3431 25 28 23.6569 28 22C28 20.3431 29.3431 19 31 19C32.6569 19 34 20.3431 34 22Z" fill="#F08080"/>
<path d="M22.1465 0C34.2158 0 44 9.61023 44 21.4651C44 33.3199 34.2158 42.9301 22.1465 42.9301C18.552 42.9301 15.1605 42.0772 12.1695 40.567C12.0317 40.633 11.8838 40.6868 11.7259 40.7257L2.75339 42.9328C1.10083 43.3392 -0.380302 41.8358 0.0876078 40.2268L2.62804 31.4912C2.6497 31.4168 2.67596 31.345 2.70422 31.2753C1.16326 28.3349 0.292917 24.9998 0.292917 21.4651C0.292917 9.61026 10.0771 4.97384e-05 22.1465 0Z" fill="#F08080" fill-opacity="0.5"/>
</svg>
