<svg width="13" height="13" viewBox="0 0 13 13" fill="none" xmlns="http://www.w3.org/2000/svg">
<path fill-rule="evenodd" clip-rule="evenodd" d="M10 1.5H3C2.60218 1.5 2.22064 1.65804 1.93934 1.93934C1.65804 2.22064 1.5 2.60218 1.5 3V8.027L2.462 7.327C2.76472 7.10705 3.12996 6.98992 3.50413 6.9928C3.87831 6.99568 4.24171 7.11842 4.541 7.343L5.469 8.039L7.837 6.009C8.16256 5.73019 8.57912 5.58056 9.00768 5.58849C9.43623 5.59641 9.84697 5.76134 10.162 6.052L11.5 7.287V3C11.5 2.60218 11.342 2.22064 11.0607 1.93934C10.7794 1.65804 10.3978 1.5 10 1.5ZM13 8.998V3C13 2.20435 12.6839 1.44129 12.1213 0.87868C11.5587 0.316071 10.7956 0 10 0H3C2.20435 0 1.44129 0.316071 0.87868 0.87868C0.316071 1.44129 0 2.20435 0 3V10C0 10.7956 0.316071 11.5587 0.87868 12.1213C1.44129 12.6839 2.20435 13 3 13H10C10.7956 13 11.5587 12.6839 12.1213 12.1213C12.6839 11.5587 13 10.7956 13 10V8.998ZM11.5 9.328L9.145 7.154C9.09999 7.11254 9.04133 7.08903 8.98014 7.08792C8.91895 7.08681 8.85948 7.10819 8.813 7.148L5.988 9.57L5.531 9.962L5.05 9.601L3.64 8.544C3.5973 8.51219 3.54557 8.49484 3.49233 8.49448C3.43909 8.49412 3.38712 8.51077 3.344 8.542L1.5 9.881V10C1.5 10.3978 1.65804 10.7794 1.93934 11.0607C2.22064 11.342 2.60218 11.5 3 11.5H10C10.3978 11.5 10.7794 11.342 11.0607 11.0607C11.342 10.7794 11.5 10.3978 11.5 10V9.328ZM6 4.5C6 4.89782 5.84196 5.27936 5.56066 5.56066C5.27936 5.84196 4.89782 6 4.5 6C4.10218 6 3.72064 5.84196 3.43934 5.56066C3.15804 5.27936 3 4.89782 3 4.5C3 4.10218 3.15804 3.72064 3.43934 3.43934C3.72064 3.15804 4.10218 3 4.5 3C4.89782 3 5.27936 3.15804 5.56066 3.43934C5.84196 3.72064 6 4.10218 6 4.5Z" fill="#5D5D5D"/>
</svg>
